<?xml version="1.0" standalone="no"?>
<!DOCTYPE svg PUBLIC "-//W3C//DTD SVG 20010904//EN"
 "http://www.w3.org/TR/2001/REC-SVG-20010904/DTD/svg10.dtd">
<svg version="1.0" xmlns="http://www.w3.org/2000/svg"
 width="1024.000000pt" height="1024.000000pt" viewBox="0 0 1024.000000 1024.000000"
 preserveAspectRatio="xMidYMid meet">
<metadata>
Created by potrace 1.11, written by Peter Selinger 2001-2013
</metadata>
<g transform="translate(0.000000,1024.000000) scale(0.100000,-0.100000)"
fill="#000000" stroke="none">
<path d="M1603 10220 c3 -11 2 -20 -1 -20 -8 0 -7 -134 1 -147 3 -5 2 -15 -3
-23 -4 -7 -4 -23 0 -36 5 -12 6 -25 3 -28 -4 -3 -5 -27 -4 -54 1 -26 1 -53 1
-59 0 -7 0 -20 0 -28 0 -8 0 -22 0 -30 0 -8 0 -22 0 -30 0 -8 0 -22 0 -30 0
-8 0 -22 0 -30 0 -8 0 -22 0 -30 0 -8 0 -22 0 -30 0 -8 0 -22 0 -30 0 -8 0
-22 0 -30 0 -8 0 -22 0 -30 0 -8 0 -22 0 -30 0 -8 0 -22 0 -30 0 -8 0 -22 0
-30 0 -8 0 -22 0 -30 0 -8 0 -22 0 -30 0 -8 0 -22 0 -30 0 -8 0 -21 0 -27 -1
-7 1 -34 2 -61 2 -26 1 -47 -2 -47 -7 0 -4 -135 3 -147 3 -5 2 -15 -3 -23 -4
-7 -4 -24 0 -36 5 -13 5 -26 1 -28 -5 -3 -5 -24 -1 -46 4 -22 5 -40 1 -40 -7
0 -6 -134 2 -147 3 -5 2 -15 -3 -23 -4 -7 -4 -23 0 -36 5 -12 6 -25 3 -28 -4
-3 -5 -27 -4 -54 1 -26 1 -53 1 -59 0 -7 0 -20 0 -28 0 -8 0 -22 0 -30 0 -8 0
-22 0 -30 0 -8 0 -22 0 -30 0 -8 0 -22 0 -30 0 -8 0 -22 0 -30 0 -8 0 -22 0
-30 0 -8 0 -22 0 -30 0 -8 0 -22 0 -30 0 -8 0 -22 0 -30 0 -8 0 -22 0 -30 0
-8 0 -22 0 -30 0 -8 0 -22 0 -30 0 -8 0 -22 0 -30 0 -8 0 -22 0 -30 0 -8 0
-22 0 -30 0 -8 0 -21 0 -27 -1 -7 1 -34 2 -61 2 -26 1 -47 -2 -47 -7 0 -4
-135 3 -147 3 -5 2 -15 -3 -23 -4 -7 -4 -23 0 -36 5 -12 6 -24 3 -28 -8 -8 -9
-106 -1 -106 4 0 3 -13 -2 -30 -5 -16 -6 -30 -2 -30 8 0 7 -68 -1 -76 -3 -3
-2 -17 3 -30 6 -14 6 -24 0 -24 -5 0 -5 -12 0 -30 5 -17 5 -30 0 -30 -5 0 -5
-13 0 -30 5 -17 5 -30 0 -30 -5 0 -5 -13 0 -30 5 -17 5 -30 0 -30 -5 0 -5 -12
-1 -28 5 -15 5 -37 0 -49 -5 -13 -4 -25 1 -28 6 -4 7 -13 1 -24 -5 -9 -6 -23
-2 -29 4 -7 4 -35 1 -62 -4 -28 -3 -50 1 -50 4 0 4 -13 -1 -30 -5 -16 -6 -30
-2 -30 8 0 7 -68 -1 -76 -3 -3 -2 -17 3 -30 6 -14 6 -24 0 -24 -5 0 -5 -12 0
-30 5 -17 5 -30 0 -30 -5 0 -5 -13 0 -30 5 -17 5 -30 0 -30 -5 0 -5 -13 0 -30
5 -17 5 -30 0 -30 -5 0 -5 -12 -1 -28 5 -15 5 -37 0 -49 -5 -13 -4 -25 1 -28
6 -4 7 -13 1 -24 -5 -9 -6 -23 -2 -30 5 -7 5 -29 1 -50 -4 -21 -3 -47 1 -59 5
-12 4 -24 -1 -27 -5 -3 -5 -18 0 -35 5 -17 5 -30 0 -30 -5 0 -5 -13 0 -30 5
-17 5 -30 0 -30 -5 0 -5 -13 0 -30 5 -17 5 -30 0 -30 -5 0 -5 -13 0 -30 5 -16
6 -30 2 -30 -4 0 -7 -29 -7 -65 0 -36 3 -65 7 -65 4 0 3 -13 -2 -30 -5 -17 -5
-30 0 -30 5 0 5 -13 0 -30 -5 -16 -6 -30 -2 -30 4 0 7 -22 7 -50 0 -27 -2 -50
-5 -50 -7 0 -4 -135 3 -147 3 -5 2 -15 -3 -23 -4 -7 -4 -23 0 -36 5 -12 6 -25
3 -28 -4 -3 -5 -27 -4 -54 1 -26 1 -53 1 -59 0 -7 0 -20 0 -28 0 -8 0 -22 0
-30 0 -8 0 -22 0 -30 0 -8 0 -22 0 -30 0 -8 0 -22 0 -30 0 -8 0 -22 0 -30 0
-8 0 -22 0 -30 0 -8 0 -22 0 -30 0 -8 0 -22 0 -30 0 -8 0 -22 0 -30 0 -8 0
-22 0 -30 0 -8 0 -22 0 -30 0 -8 0 -22 0 -30 0 -8 0 -22 0 -30 0 -8 0 -22 0
-30 0 -8 0 -22 0 -30 0 -8 0 -21 0 -27 -1 -7 1 -34 2 -61 2 -26 1 -47 -2 -47
-7 0 -4 -135 3 -147 3 -5 2 -15 -3 -23 -4 -7 -4 -23 0 -36 5 -12 6 -25 3 -28
-8 -8 -7 -102 1 -115 4 -5 2 -12 -3 -15 -6 -4 -6 -18 -1 -36 5 -17 5 -30 0
-30 -5 0 -5 -13 0 -30 5 -17 5 -30 0 -30 -5 0 -5 -13 0 -30 5 -17 5 -30 0 -30
-5 0 -5 -13 0 -30 5 -16 6 -30 2 -30 -4 0 -7 -29 -7 -65 0 -36 3 -65 7 -65 4
0 3 -13 -2 -30 -5 -17 -5 -30 0 -30 5 0 5 -13 0 -30 -5 -16 -5 -30 0 -30 4 0
5 -15 0 -33 -4 -18 -3 -43 1 -55 l8 -22 498 2 498 3 1 3223 2 3222 -505 0
c-500 0 -505 0 -500 -20z"/>
<path d="M3937 8724 c-4 -4 -78 -8 -164 -8 l-158 -1 -3 -4357 -2 -4358 504 0
503 0 0 4355 0 4355 -21 5 c-11 2 -90 3 -174 2 -83 -1 -152 1 -152 5 0 4 -7 5
-16 1 -24 -9 -304 -9 -307 0 -1 5 -6 5 -10 1z"/>
<path d="M7718 8724 c-3 -3 -24 -5 -46 -6 l-41 0 0 -2469 0 -2469 504 0 c463
0 539 4 506 25 -6 3 -7 15 -1 29 4 12 4 29 0 36 -5 8 -5 21 0 30 5 9 5 22 0
30 -5 8 -5 21 0 30 5 9 5 22 0 30 -5 8 -5 21 0 30 5 9 5 22 0 30 -5 8 -5 21 0
31 5 9 7 19 4 22 -7 7 -11 97 -4 97 7 0 4 135 -3 147 -3 5 -2 15 3 23 4 7 4
23 0 36 -5 12 -6 25 -3 28 8 8 7 102 -1 115 -4 5 -2 12 3 15 6 4 6 18 1 36 -5
17 -5 30 0 30 5 0 5 13 0 30 -5 17 -5 30 0 30 5 0 5 13 0 30 -5 17 -5 30 0 30
5 0 5 13 0 30 -5 17 -6 30 -2 30 4 0 7 29 7 65 0 36 -3 65 -7 65 -4 0 -3 14 2
30 5 17 5 30 0 30 -5 0 -5 13 0 30 5 17 5 30 1 30 -4 0 -5 22 -1 49 3 27 3 58
-1 70 -5 11 -4 23 1 26 5 3 5 18 0 35 -5 17 -5 30 0 30 5 0 5 13 0 30 -5 17
-5 30 0 30 5 0 5 13 0 30 -5 17 -5 30 0 30 5 0 5 13 0 30 -5 17 -6 30 -2 30 4
0 7 29 7 65 0 36 -3 65 -7 65 -4 0 -3 14 2 30 5 17 5 30 0 30 -5 0 -5 13 0 30
5 17 6 30 2 30 -4 0 -7 23 -7 50 0 28 2 50 5 50 7 0 4 135 -3 147 -3 5 -2 15
3 23 4 7 4 23 0 36 -5 12 -6 25 -3 28 4 3 5 27 4 54 -1 26 -1 53 -1 60 0 6 0
19 0 27 0 8 0 22 0 30 0 8 0 22 0 30 0 8 0 22 0 30 0 8 0 22 0 30 0 8 0 22 0
30 0 8 0 22 0 30 0 8 0 22 0 30 0 8 0 22 0 30 0 8 0 22 0 30 0 8 0 22 0 30 0
8 0 22 0 30 0 8 0 22 0 30 0 8 0 22 0 30 0 8 0 22 0 30 0 8 0 22 0 30 0 8 0
21 0 28 1 6 -1 33 -2 60 -2 26 -1 47 2 47 7 0 4 135 -3 147 -3 5 -2 15 3 23 4
7 4 23 0 36 -5 12 -6 25 -3 28 8 8 7 102 -1 115 -4 5 -2 12 3 15 6 4 6 18 1
36 -5 17 -5 30 0 30 5 0 5 13 0 30 -5 17 -5 30 0 30 5 0 5 13 0 30 -5 17 -5
30 0 30 5 0 5 13 0 30 -5 17 -6 30 -2 30 4 0 7 29 7 65 0 36 -3 65 -7 65 -4 0
-3 14 2 30 5 17 5 30 0 30 -5 0 -5 13 0 30 5 17 5 30 1 30 -4 0 -5 22 -1 49 3
27 3 58 -1 70 -5 11 -4 23 1 26 5 3 5 18 0 35 -5 17 -5 30 0 30 5 0 5 13 0 30
-5 17 -5 30 0 30 5 0 5 13 0 30 -5 17 -5 30 0 30 5 0 5 13 0 30 -5 17 -6 30
-2 30 4 0 7 29 7 65 0 36 -3 65 -7 65 -4 0 -3 14 2 30 5 17 5 30 0 30 -5 0 -5
13 0 30 5 17 6 30 2 30 -4 0 -7 23 -7 50 0 28 2 50 5 50 7 0 4 135 -3 147 -3
5 -2 15 3 23 4 7 4 23 0 36 -5 12 -6 25 -3 28 4 3 6 30 6 58 -1 53 -23 86 -46
71 -11 -7 -52 -7 -115 0 -18 2 -35 0 -38 -5 -3 -5 -13 -4 -22 1 -9 5 -26 5
-40 0 -13 -5 -21 -6 -19 -1 3 4 -15 7 -39 7 -24 0 -44 -2 -44 -5 0 -5 -51 -4
-118 3 -18 2 -35 0 -38 -5 -3 -5 -13 -4 -22 1 -9 5 -26 5 -40 0 -13 -5 -21 -5
-18 0 4 5 -9 6 -29 1 -19 -4 -37 -4 -40 1 -3 4 -16 5 -28 1 -12 -4 -33 -6 -47
-5 -14 1 -40 4 -58 6 -18 2 -35 0 -38 -5 -3 -5 -13 -4 -22 1 -9 5 -26 5 -40 0
-15 -6 -21 -5 -17 1 7 11 2 14 -7 4z"/>
<path d="M5626 8711 c-2 -3 -4 -1965 -4 -4358 l1 -4353 503 0 504 0 -2 4358
-3 4357 -498 1 c-274 0 -499 -2 -501 -5z"/>
</g>
</svg>
